<?xml version="1.0" encoding="utf-8"?>
<!-- Generator: Adobe Illustrator 24.3.0, SVG Export Plug-In . SVG Version: 6.00 Build 0)  -->
<svg version="1.1" id="Capa_1" xmlns="http://www.w3.org/2000/svg" xmlns:xlink="http://www.w3.org/1999/xlink" x="0px" y="0px"
	 viewBox="0 0 100 100" style="enable-background:new 0 0 100 100;" xml:space="preserve">
<style type="text/css">
	.st0{display:none;}
	.st1{display:inline;fill:#D03737;}
	.st2{display:inline;fill:none;stroke:#D03737;stroke-width:3.8459;}
	.st3{display:inline;fill:#16690F;}
	.st4{display:inline;fill:#8F8F8F;}
	.st5{display:inline;fill:none;stroke:#777777;stroke-width:9.0318;}
	.st6{display:inline;fill:#777777;}
	.st7{display:inline;fill:none;stroke:#777777;stroke-width:8.7786;}
	.st8{display:inline;fill:none;stroke:#D03737;stroke-width:5.2611;}
	.st9{display:inline;fill:none;stroke:#D03737;stroke-width:5.2611;stroke-linecap:round;}
	.st10{display:inline;fill:none;stroke:#D03737;stroke-width:5.2618;stroke-linecap:round;stroke-miterlimit:4.0005;}
	.st11{fill:none;stroke:#232671;stroke-width:6.4672;}
</style>
<g id="Icon_ionic-ios-checkmark-circle-outline" transform="translate(-3.375 -3.375)" class="st0">
	<path id="Trazado_5" class="st1" d="M53.4,18.8C72.5,18.8,88,34.3,88,53.4C87.9,72.5,72.4,88,53.3,88S18.7,72.5,18.7,53.3
		c0-9.2,3.6-18,10.1-24.5C35.4,22.4,44.2,18.7,53.4,18.8 M53.4,13.4c-22.1,0-40,17.9-40,40s17.9,40,40,40c22.1,0,40-17.9,40-40
		C93.4,31.3,75.5,13.4,53.4,13.4C53.4,13.4,53.4,13.4,53.4,13.4z"/>
	<line id="Línea_1" class="st2" x1="35.9" y1="35.9" x2="69.2" y2="69.2"/>
	<line id="Línea_2" class="st2" x1="69.2" y1="35.9" x2="35.9" y2="69.2"/>
</g>
<g id="Icon_ionic-ios-checkmark-circle-outline_1_" transform="translate(-3.375 -3.375)" class="st0">
	<path id="Trazado_4" class="st3" d="M73.9,41.2l-3.4-3.5c-0.1-0.1-0.3-0.2-0.5-0.2l0,0c-0.2,0-0.4,0.1-0.5,0.2L46,61.4l-8.5-8.5
		c-0.3-0.3-0.8-0.3-1.1,0c0,0,0,0,0,0l-3.4,3.4c-0.3,0.3-0.3,0.8,0,1.1c0,0,0,0,0,0l10.8,10.8c0.6,0.6,1.4,1,2.3,1.1
		c0.8-0.1,1.6-0.5,2.2-1.1h0l25.7-25.8C74.2,42,74.2,41.5,73.9,41.2z"/>
	<path id="Trazado_5_1_" class="st3" d="M53.4,18.8C72.5,18.8,88,34.3,88,53.4C88,72.5,72.5,88,53.3,88S18.7,72.5,18.8,53.3
		c0-9.2,3.6-18,10.1-24.5C35.4,22.4,44.2,18.7,53.4,18.8 M53.4,13.4c-22.1,0-40,17.9-40,40s17.9,40,40,40s40-17.9,40-40
		C93.4,31.3,75.5,13.4,53.4,13.4C53.4,13.4,53.4,13.4,53.4,13.4z"/>
</g>
<g id="Grupo_34" transform="translate(-79 -636.706)" class="st0">
	<path id="Icon_ionic-ios-play" class="st4" d="M169,704.6V669c0-0.5-0.3-0.9-0.8-1c-0.2,0-0.4,0-0.5,0.1l-28.2,17.8
		c-0.5,0.3-0.6,0.9-0.3,1.4c0.1,0.1,0.2,0.2,0.3,0.3l28.2,17.8c0.4,0.3,1,0.1,1.2-0.3C169,704.9,169,704.7,169,704.6z"/>
	<path id="Icon_ionic-ios-play-2" class="st4" d="M89,669v35.5c0,0.5,0.3,0.9,0.8,1c0.2,0,0.4,0,0.5-0.1l28.2-17.8
		c0.5-0.3,0.6-0.9,0.3-1.4c-0.1-0.1-0.2-0.2-0.3-0.3l-28.2-17.8c-0.4-0.3-1-0.1-1.2,0.3C89,668.6,89,668.8,89,669z"/>
	<line id="Línea_3" class="st5" x1="129.1" y1="651.5" x2="129.1" y2="721.9"/>
</g>
<g id="Grupo_35" transform="translate(-79 -628.5)" class="st0">
	<path id="Icon_ionic-ios-play_1_" class="st6" d="M139,661.3v35.5c0,0.5,0.4,0.9,0.9,1c0.2,0,0.3,0,0.5-0.1l28.2-17.8
		c0.5-0.3,0.6-0.9,0.3-1.4c-0.1-0.1-0.2-0.2-0.3-0.3l-28.2-17.8c-0.4-0.3-1-0.1-1.2,0.3C139,661,139,661.2,139,661.3z"/>
	<path id="Icon_ionic-ios-play-2_1_" class="st6" d="M119,696.9v-35.5c0-0.5-0.4-0.9-0.9-1c-0.2,0-0.3,0-0.5,0.1l-28.2,17.8
		c-0.5,0.3-0.6,0.9-0.3,1.4c0.1,0.1,0.2,0.2,0.3,0.3l28.2,17.8c0.4,0.3,1,0.1,1.2-0.3C119,697.2,119,697.1,119,696.9z"/>
	<line id="Línea_3_1_" class="st7" x1="129.1" y1="643.3" x2="129.1" y2="713.7"/>
</g>
<g id="Grupo_52" transform="translate(-15.071 -9.798)" class="st0">
	<path id="Icon_awesome-bell" class="st8" d="M64.2,93.9c4.1,0,7.4-3.3,7.4-7.4c0,0,0,0,0,0H56.8C56.8,90.6,60.1,93.9,64.2,93.9
		C64.2,93.9,64.2,93.9,64.2,93.9z M89.3,76.5c-2.2-2.4-6.5-6.1-6.5-17.9c0-8.8-6.2-16.4-14.9-18v-2.4c0.1-2.1-1.6-3.8-3.6-3.8
		c-2.1-0.1-3.8,1.6-3.8,3.6c0,0.1,0,0.1,0,0.2v2.4c-8.6,1.7-14.9,9.2-14.9,18c0,11.9-4.2,15.5-6.5,17.9c-0.6,0.7-1,1.6-1,2.5
		c0,2.1,1.7,3.7,3.7,3.7c0,0,0,0,0,0h44.6c2.1,0,3.7-1.7,3.7-3.7C90.3,78.1,89.9,77.2,89.3,76.5L89.3,76.5z"/>
	<path id="Trazado_6" class="st9" d="M35.6,47.7c0,0-0.7-10.7,9.7-12.2"/>
	<path id="Trazado_7" class="st9" d="M25.1,42.9c0,0-1-14.5,13.3-16.6"/>
	<path id="Trazado_8" class="st10" d="M85,34.6c0,0,10.5,2.1,9.2,12.6"/>
	<path id="Trazado_9" class="st10" d="M92.3,25.7c0,0,14.3,2.8,12.6,17.1"/>
</g>
<path id="Icon_awesome-phone-alt" class="st11" d="M87.7,66.5L70.2,59c-1.5-0.7-3.3-0.2-4.4,1.1l-7.8,9.5
	c-12.2-5.7-21.9-15.5-27.7-27.7l9.5-7.8c1.3-1.1,1.7-2.8,1.1-4.4l-7.5-17.5c-0.7-1.7-2.5-2.6-4.3-2.2l-16.2,3.7
	c-1.7,0.4-2.9,1.9-2.9,3.7C10,57.5,42.4,90,82.5,90c0,0,0,0,0,0c1.7,0,3.3-1.2,3.7-2.9l3.8-16.2C90.3,69.1,89.4,67.3,87.7,66.5z"/>
</svg>
