<?xml version="1.0" encoding="utf-8"?>
<!-- Generator: Adobe Illustrator 24.3.0, SVG Export Plug-In . SVG Version: 6.00 Build 0)  -->
<svg version="1.1" id="Capa_1" xmlns="http://www.w3.org/2000/svg" xmlns:xlink="http://www.w3.org/1999/xlink" x="0px" y="0px"
	 viewBox="0 0 100 100" style="enable-background:new 0 0 100 100;" xml:space="preserve">
<style type="text/css">
	.st0{display:none;}
	.st1{display:inline;fill:#D03737;}
	.st2{display:inline;fill:none;stroke:#D03737;stroke-width:3.8459;}
	.st3{display:inline;fill:#16690F;}
	.st4{fill:#8F8F8F;}
	.st5{fill:none;stroke:#777777;stroke-width:9.0318;}
</style>
<g id="Icon_ionic-ios-checkmark-circle-outline" transform="translate(-3.375 -3.375)" class="st0">
	<path id="Trazado_5" class="st1" d="M53.4,18.8C72.5,18.8,88,34.3,88,53.4C87.9,72.5,72.4,88,53.3,88S18.7,72.5,18.7,53.3
		c0-9.2,3.6-18,10.1-24.5C35.4,22.4,44.2,18.7,53.4,18.8 M53.4,13.4c-22.1,0-40,17.9-40,40s17.9,40,40,40c22.1,0,40-17.9,40-40
		C93.4,31.3,75.5,13.4,53.4,13.4C53.4,13.4,53.4,13.4,53.4,13.4z"/>
	<line id="Línea_1" class="st2" x1="35.9" y1="35.9" x2="69.2" y2="69.2"/>
	<line id="Línea_2" class="st2" x1="69.2" y1="35.9" x2="35.9" y2="69.2"/>
</g>
<g id="Icon_ionic-ios-checkmark-circle-outline_1_" transform="translate(-3.375 -3.375)" class="st0">
	<path id="Trazado_4" class="st3" d="M73.9,41.2l-3.4-3.5c-0.1-0.1-0.3-0.2-0.5-0.2l0,0c-0.2,0-0.4,0.1-0.5,0.2L46,61.4l-8.5-8.5
		c-0.3-0.3-0.8-0.3-1.1,0c0,0,0,0,0,0l-3.4,3.4c-0.3,0.3-0.3,0.8,0,1.1c0,0,0,0,0,0l10.8,10.8c0.6,0.6,1.4,1,2.3,1.1
		c0.8-0.1,1.6-0.5,2.2-1.1h0l25.7-25.8C74.2,42,74.2,41.5,73.9,41.2z"/>
	<path id="Trazado_5_1_" class="st3" d="M53.4,18.8C72.5,18.8,88,34.3,88,53.4C88,72.5,72.5,88,53.3,88S18.7,72.5,18.8,53.3
		c0-9.2,3.6-18,10.1-24.5C35.4,22.4,44.2,18.7,53.4,18.8 M53.4,13.4c-22.1,0-40,17.9-40,40s17.9,40,40,40s40-17.9,40-40
		C93.4,31.3,75.5,13.4,53.4,13.4C53.4,13.4,53.4,13.4,53.4,13.4z"/>
</g>
<g id="Grupo_34" transform="translate(-79 -636.706)">
	<path id="Icon_ionic-ios-play" class="st4" d="M169,704.6V669c0-0.5-0.3-0.9-0.8-1c-0.2,0-0.4,0-0.5,0.1l-28.2,17.8
		c-0.5,0.3-0.6,0.9-0.3,1.4c0.1,0.1,0.2,0.2,0.3,0.3l28.2,17.8c0.4,0.3,1,0.1,1.2-0.3C169,704.9,169,704.7,169,704.6z"/>
	<path id="Icon_ionic-ios-play-2" class="st4" d="M89,669v35.5c0,0.5,0.3,0.9,0.8,1c0.2,0,0.4,0,0.5-0.1l28.2-17.8
		c0.5-0.3,0.6-0.9,0.3-1.4c-0.1-0.1-0.2-0.2-0.3-0.3l-28.2-17.8c-0.4-0.3-1-0.1-1.2,0.3C89,668.6,89,668.8,89,669z"/>
	<line id="Línea_3" class="st5" x1="129.1" y1="651.5" x2="129.1" y2="721.9"/>
</g>
</svg>
